<svg xmlns="http://www.w3.org/2000/svg" width="116" height="75.21" viewBox="0 0 116 75.21"><defs><style>.a{fill:#fff;}</style></defs><path class="a" d="M250.333,176.108c.348-.125.649.106.672.515a1.013,1.013,0,0,1-.594.971c-.348.122-.648-.105-.67-.52a1.015,1.015,0,0,1,.592-.967" transform="translate(-169.638 -123.17)"/><path class="a" d="M224.534,169.63l.066,1.267a1.251,1.251,0,0,0-.809.025l-1.09.359c0,.161.07,1.436.087,1.6.355-.131.515-.187.763-.287a1.446,1.446,0,0,0,.557-.409l.079,1.492a.8.8,0,0,0-.6-.062c-.251.07-.394.115-.75.244l.088,1.625,1.258-.445a2.139,2.139,0,0,0,.731-.557l.06,1.347-3.531,1.27a2.647,2.647,0,0,0,.159-1.16s-.109-2.936-.227-4.337a1.523,1.523,0,0,0-.253-.8Z" transform="translate(-151.219 -119.023)"/><path class="a" d="M233.122,175.944a1.54,1.54,0,0,0,1.229.147.593.593,0,0,0,.42-.516c-.016-.3-.2-.471-.76-.588-.621-.127-1-.377-1.032-.99a1.857,1.857,0,0,1,1.6-1.8,4.048,4.048,0,0,1,.945-.073l.053.988a1.444,1.444,0,0,0-.928-.05c-.3.109-.457.306-.407.541.045.206.357.3.991.466a.885.885,0,0,1,.735.9,1.962,1.962,0,0,1-1.552,1.939,4.732,4.732,0,0,1-1.231.193Z" transform="translate(-158.85 -120.628)"/><path class="a" d="M243.073,167.279c0,.274-.01.225.021.776l.261-.1a2.145,2.145,0,0,0,.521-.305l.036.976-.774.266.108,2.134c.026.466.316.587.656.5l.033.645a3.174,3.174,0,0,1-.794.456.734.734,0,0,1-.821-.131,1.534,1.534,0,0,1-.267-.957l-.117-2.219-.543.172.758-1.839Z" transform="translate(-164.266 -117.51)"/><path class="a" d="M256.761,166.195l-1.845.655a2.387,2.387,0,0,0,.233-1.082l-.164-3.1a.937.937,0,0,0-.559-.877c.062-.02,1.672-1.442,1.672-1.442l.262,5a.954.954,0,0,0,.4.84" transform="translate(-172.654 -113.051)"/><path class="a" d="M274.479,156.407a1.106,1.106,0,0,1-.439-.866,2.345,2.345,0,0,1,1.679-2.19c.914-.328,1.661-.068,1.707.856a2.23,2.23,0,0,1-.733,1.442,1.905,1.905,0,0,1,.38.146,1.234,1.234,0,0,1,.679,1.082,2.7,2.7,0,0,1-1.831,2.487c-1.016.365-1.906.02-1.958-.947a2.571,2.571,0,0,1,.881-1.8,1.227,1.227,0,0,1-.364-.213m.635,1.734a.517.517,0,0,0,.749.485.961.961,0,0,0,.641-.9c-.021-.432-.308-.606-.862-.8a1.907,1.907,0,0,0-.528,1.223m1.2-3.691a.411.411,0,0,0-.57-.425.762.762,0,0,0-.508.769c.018.34.363.562.684.654a1.594,1.594,0,0,0,.394-1" transform="translate(-185.226 -108.458)"/><path class="a" d="M262.3,160.764a1.118,1.118,0,0,1-.443-.864,2.352,2.352,0,0,1,1.681-2.191c.913-.331,1.661-.068,1.709.855a2.206,2.206,0,0,1-.737,1.442,1.924,1.924,0,0,1,.383.146,1.23,1.23,0,0,1,.674,1.082,2.689,2.689,0,0,1-1.824,2.486c-1.019.366-1.914.022-1.96-.945a2.577,2.577,0,0,1,.879-1.8,1.222,1.222,0,0,1-.361-.213m.633,1.737a.516.516,0,0,0,.749.484.967.967,0,0,0,.642-.905c-.026-.431-.31-.6-.864-.8a1.914,1.914,0,0,0-.527,1.224m1.194-3.692c-.019-.39-.294-.522-.567-.426a.761.761,0,0,0-.51.771c.016.341.365.558.686.651a1.593,1.593,0,0,0,.39-1" transform="translate(-177.387 -111.262)"/><path class="a" d="M286.418,153.471a1.3,1.3,0,0,0,1.276.2,1.349,1.349,0,0,0,.837-1.379c-.029-.6-.377-.794-.809-.64a1.424,1.424,0,0,0-.69.66l-.551-.154L286.4,149.1l2.262-.811a2.115,2.115,0,0,0,.686-.357l.028,1.293-2.033.728.025,1.165a2.47,2.47,0,0,1,.882-.553c1.1-.395,1.63.338,1.671,1.158a3,3,0,0,1-2.014,2.815,2.81,2.81,0,0,1-1.429.106Z" transform="translate(-193.235 -105.061)"/><path class="a" d="M38.951,81.015l1.673,31.911a15.019,15.019,0,0,1-1.37,7.683c.869-.308,9.411-3.332,11.455-4.1a6.8,6.8,0,0,1-1.874-4.881l-.751-14.385a24.685,24.685,0,0,0,9.11-3.718c6.943-4.771,8.805-10.1,8.324-15.811-.571-6.772-5.564-12.475-13.42-12.042a23.793,23.793,0,0,0-7.894,2.016C34.424,71.83,25.334,82.163,25,95.225c-.2,7.668,3.116,15.607,8.271,19.641a10.364,10.364,0,0,0,3.255,1.833c-7.15-5.948-8.126-15.207-7.564-20.428C30.333,83.452,39.688,75.665,46.012,73.7c5.9-1.833,11.25.06,11.59,6.6a12.346,12.346,0,0,1-6.9,12.168,10.514,10.514,0,0,1-2.792.885l-.932-17.772a23.683,23.683,0,0,0-8.024,5.439" transform="translate(-24.989 -52.1)"/><path class="a" d="M240.414,97.005c.1,5.515,3.817,9.291,9.03,7.807,3.464-.985,6.775-4.469,8-7.11a7.9,7.9,0,0,1-.881,3.989c.592-.216,6.02-2.19,6.865-2.491a7.232,7.232,0,0,1-1.088-4.075c-.026-.509-.161-2.85-.286-5.451.01-2.691.88-4.211,1.673-4.727a1.56,1.56,0,0,1,2.457.78,2.116,2.116,0,0,1-.839,2.207,3.954,3.954,0,0,0,4.98-4.448,3.8,3.8,0,0,0-4.934-3.58,5.556,5.556,0,0,0-3.6,4.019c-.071-1.451-.114-2.444-.114-2.444l-6.241,2.28a3.706,3.706,0,0,1,1.182,2.825l.351,6.654c-.82,3.209-3.79,6.79-6.306,7.362-2.416.546-4.034-.441-4.806-2.288a8.651,8.651,0,0,0,4.34-.52,7.513,7.513,0,0,0,4.5-7.648c-.344-3.55-3.4-5.24-6.908-4.119-4.974,1.586-7.465,6.114-7.375,10.978m7.219-7.82c1.664-.332,2.159,1.272,2.168,2.336a4.244,4.244,0,0,1-2.18,3.928,4.476,4.476,0,0,1-2.314.453c-.487-4.231,1.03-6.463,2.326-6.717" transform="translate(-163.635 -61.168)"/><path class="a" d="M127.986,147.371c3.551-2.344,5.3-7.182,5.056-11.864-.291-5.57-3.843-6.982-6.34-6.138a6.5,6.5,0,0,0-4.064,3.144l-.079-1.528-6.387,2.334a3.721,3.721,0,0,1,1.17,2.824c.029.54.188,3.778.367,7.37-.881,3.084-3.967,6.117-6.4,6.666-2.414.546-4.031-.436-4.805-2.287a8.679,8.679,0,0,0,4.341-.518,7.5,7.5,0,0,0,4.5-7.648c-.339-3.549-3.394-5.241-6.9-4.122-4.975,1.587-7.466,6.112-7.374,10.978.1,5.515,3.814,9.286,9.029,7.8,3.42-.971,6.826-3.871,7.845-6.232.323,6.451.37,7.322.375,7.43a12.877,12.877,0,0,1-.763,4.954l7.3-2.668a8.1,8.1,0,0,1-1.1-4.072l-.247-4.767a13.163,13.163,0,0,0,4.481-1.66m-19.7-8.611c1.662-.327,2.157,1.275,2.169,2.338a4.251,4.251,0,0,1-2.183,3.929,4.486,4.486,0,0,1-2.313.453c-.49-4.234,1.03-6.463,2.327-6.72m16.725-4.48c1.66-.272,2.6,1.136,2.709,3.178.137,2.627-.485,5.393-2.078,7.056a5.37,5.37,0,0,1-2.3,1.3l-.531-10.085a4.156,4.156,0,0,1,2.2-1.444" transform="translate(-73.949 -92.965)"/><path class="a" d="M202.648,130.335c3.536-2.345,5.351-6.811,5.066-11.635-.346-5.874-3.653-7.2-6.349-6.31a7.378,7.378,0,0,0-3.927,3.495l-.106-1.941-6.388,2.336a3.69,3.69,0,0,1,1.149,2.822l1.022,19.523a11.576,11.576,0,0,1-.737,4.89s6.406-2.328,7.252-2.627a8.136,8.136,0,0,1-1.1-4.076l-.253-4.819a12.571,12.571,0,0,0,4.367-1.658m-2.763-13.086c1.661-.275,2.46,1.36,2.566,3.4.137,2.629-.38,5.182-2.09,6.884a5.483,5.483,0,0,1-2.253,1.22l-.526-10.072a4.516,4.516,0,0,1,2.3-1.433" transform="translate(-131.797 -82.022)"/><path class="a" d="M209.719,55.486l.521,9.928a12.218,12.218,0,0,1-.581,5.18c.592-.217,6.019-2.19,6.865-2.492a7.207,7.207,0,0,1-1.1-4.077c-.026-.506-.139-2.848-.264-5.45-.151-2.915.8-4.073,1.663-4.725a1.541,1.541,0,0,1,2.46.778,2.122,2.122,0,0,1-.839,2.207c2.567.694,5.229-1.118,4.979-4.447a3.8,3.8,0,0,0-4.933-3.58,5.55,5.55,0,0,0-3.6,4.018c-.072-1.451-.118-2.443-.118-2.443l-6.238,2.28a3.714,3.714,0,0,1,1.185,2.822" transform="translate(-143.118 -41.154)"/><path class="a" d="M138.935,52.242c.1,1.669.877,16.824.916,17.5a10.327,10.327,0,0,1-.982,6.129c1.22-.418,9.674-3.389,11.868-4.281,6.138-2.494,10.943-8.482,10.5-17.545-.462-9.5-6.965-12.413-14.143-10.036-1.918.635-8.673,3.152-10.184,3.651,1.108.732,1.873,1.993,2.025,4.578m11.092-4.328c3.071.717,4.2,4.424,4.33,8.048.153,4.115-1.2,9.089-4.412,11.448a12.143,12.143,0,0,1-3.292,1.629c-.041-.742-.983-18.417-1.065-19.993a6.359,6.359,0,0,1,4.439-1.132" transform="translate(-97.021 -37.67)"/><path class="a" d="M313.094,122.229a3.339,3.339,0,0,1-1.752,1.474,2.313,2.313,0,0,1-2.053-.119,2.284,2.284,0,0,1-1.115-1.709,3.267,3.267,0,0,1,.494-2.35,3.377,3.377,0,0,1,1.724-1.434,2.325,2.325,0,0,1,2.04.132,2.27,2.27,0,0,1,1.127,1.7,3.271,3.271,0,0,1-.464,2.306m-4.074-2.369a2.713,2.713,0,0,0-.366,1.848,1.871,1.871,0,0,0,.931,1.41,1.9,1.9,0,0,0,1.683.112,2.713,2.713,0,0,0,1.444-1.25,2.746,2.746,0,0,0,.369-1.878,1.908,1.908,0,0,0-2.6-1.512,2.724,2.724,0,0,0-1.459,1.27m.936,3.025-.527-3.109c.186-.069.462-.167.829-.3s.57-.2.613-.216a1.452,1.452,0,0,1,.619-.056.654.654,0,0,1,.523.6.863.863,0,0,1-.114.646,1.255,1.255,0,0,1-.483.4.9.9,0,0,1,.46.018.7.7,0,0,1,.391.6l.045.281a.558.558,0,0,0,.021.091.587.587,0,0,0,.03.088l.034.079-.743.272a2.292,2.292,0,0,1-.12-.417,1.29,1.29,0,0,0-.117-.366.3.3,0,0,0-.264-.15.919.919,0,0,0-.278.048l-.177.053-.164.06.189,1.107Zm.989-3.018a1.266,1.266,0,0,0-.467.1l-.193.07.156.905.3-.11a.919.919,0,0,0,.414-.272.519.519,0,0,0,.1-.428.292.292,0,0,0-.309-.267" transform="translate(-207.215 -85.741)"/><path class="a" d="M186.059,46.15c-2.86-7.262-8.245-12.977-17.136-16.487a31.733,31.733,0,0,0-8.06-2.028c9.97,3.266,17.5,9.163,20.692,17.256,7.344,18.648-11.154,41.875-41.32,51.876-15.171,5.025-30.392,5.758-42.719,2.877,1.3.915,4.408,1.632,6.756,2.088,11.9,2.3,26.2,1.02,40.467-3.709C174.9,88.021,193.4,64.8,186.059,46.15" transform="translate(-71.668 -27.635)"/></svg>