<svg xmlns="http://www.w3.org/2000/svg" width="21.801" height="21.801" viewBox="0 0 21.801 21.801"><defs><style>.a{fill:#fff;}</style></defs><g transform="translate(0 0)"><path class="a" d="M14.98,6.043c2.911,0,3.255.011,4.4.064a6.034,6.034,0,0,1,2.024.375,3.61,3.61,0,0,1,2.069,2.069,6.033,6.033,0,0,1,.375,2.024c.052,1.149.064,1.494.064,4.4s-.011,3.255-.064,4.4a6.033,6.033,0,0,1-.375,2.024,3.61,3.61,0,0,1-2.069,2.069,6.033,6.033,0,0,1-2.024.375c-1.149.052-1.494.064-4.4.064s-3.256-.011-4.4-.064a6.033,6.033,0,0,1-2.024-.375,3.61,3.61,0,0,1-2.069-2.069,6.033,6.033,0,0,1-.375-2.024c-.052-1.149-.064-1.494-.064-4.4s.011-3.255.064-4.4a6.033,6.033,0,0,1,.375-2.024A3.61,3.61,0,0,1,8.551,6.482a6.033,6.033,0,0,1,2.024-.375c1.149-.052,1.494-.064,4.4-.064m0-1.964c-2.96,0-3.332.013-4.494.066a8,8,0,0,0-2.646.507A5.574,5.574,0,0,0,4.651,7.839a8,8,0,0,0-.507,2.646c-.053,1.163-.066,1.534-.066,4.494s.013,3.332.066,4.494a8,8,0,0,0,.507,2.646,5.574,5.574,0,0,0,3.188,3.188,8,8,0,0,0,2.646.507c1.163.053,1.534.066,4.494.066s3.332-.013,4.494-.066a8,8,0,0,0,2.646-.507,5.574,5.574,0,0,0,3.188-3.188,8,8,0,0,0,.507-2.646c.053-1.163.066-1.534.066-4.494s-.013-3.332-.066-4.494a8,8,0,0,0-.507-2.646A5.574,5.574,0,0,0,22.12,4.651a8,8,0,0,0-2.646-.507c-1.163-.053-1.534-.066-4.494-.066Z" transform="translate(-4.079 -4.079)"/><path class="a" d="M132.233,126.635a5.6,5.6,0,1,0,5.6,5.6A5.6,5.6,0,0,0,132.233,126.635Zm0,9.231a3.634,3.634,0,1,1,3.634-3.634A3.634,3.634,0,0,1,132.233,135.866Z" transform="translate(-121.332 -121.332)"/><circle class="a" cx="1.308" cy="1.308" r="1.308" transform="translate(15.411 3.774)"/></g></svg>