<svg xmlns="http://www.w3.org/2000/svg" width="32" height="22.545" viewBox="0 0 32 22.545"><defs><style>.a{fill:#fff;}</style></defs><path class="a" d="M39.331,37.521A4.021,4.021,0,0,0,36.5,34.673C34.007,34,24,34,24,34s-10.007,0-12.5.673a4.021,4.021,0,0,0-2.829,2.847A42.175,42.175,0,0,0,8,45.273a42.175,42.175,0,0,0,.669,7.752A4.021,4.021,0,0,0,11.5,55.872c2.5.673,12.5.673,12.5.673s10.007,0,12.5-.673a4.021,4.021,0,0,0,2.829-2.847A42.176,42.176,0,0,0,40,45.273,42.176,42.176,0,0,0,39.331,37.521Zm-18.6,12.51V40.515l8.364,4.758Z" transform="translate(-8 -34)"/></svg>