<svg xmlns="http://www.w3.org/2000/svg" width="22.252" height="19.07" viewBox="0 0 22.252 19.07"><defs><style>.a{fill:#fff;}</style></defs><g transform="translate(0)"><g transform="translate(0)"><path class="a" d="M-500.461,109.339a8.7,8.7,0,0,0,1.09.069,8.811,8.811,0,0,0,5.667-2.065,4.635,4.635,0,0,1-4.262-3.4,4.327,4.327,0,0,0,.861.095,4.3,4.3,0,0,0,1.205-.164,4.85,4.85,0,0,1-3.662-4.805v-.062a4.369,4.369,0,0,0,2.066.632,5.026,5.026,0,0,1-2.028-4.077,5.054,5.054,0,0,1,.618-2.442,12.872,12.872,0,0,0,9.408,5.2,5.1,5.1,0,0,1-.119-1.1,4.613,4.613,0,0,1,1.282-3.338,4.613,4.613,0,0,1,3.282-1.419,4.542,4.542,0,0,1,3.332,1.572,8.731,8.731,0,0,0,2.9-1.117,4.676,4.676,0,0,1-2.008,2.622,8.7,8.7,0,0,0,2.622-.718,9.387,9.387,0,0,1-2.278,2.45c.009.207.014.413.014.62,0,6.338-4.592,13.645-12.989,13.642A12.292,12.292,0,0,1-500.461,109.339Z" transform="translate(500.461 -92.462)"/></g></g></svg>