<?xml version="1.0" encoding="utf-8"?>
<!-- Generator: Adobe Illustrator 24.0.2, SVG Export Plug-In . SVG Version: 6.00 Build 0)  -->
<svg version="1.1" id="Layer_1" xmlns="http://www.w3.org/2000/svg" xmlns:xlink="http://www.w3.org/1999/xlink" x="0px" y="0px"
	 viewBox="0 0 284.2 317.6" style="enable-background:new 0 0 284.2 317.6;" xml:space="preserve">
<style type="text/css">
	.st0{fill:#01513E;}
	.st1{fill:#BFBFBF;}
	.st2{fill:#FFFFFF;stroke:#01513E;stroke-miterlimit:10;}
	.st3{fill:none;}
	.st4{fill:#1D513F;}
</style>
<circle class="st0" cx="1194.2" cy="-30.1" r="24.7"/>
<circle class="st1" cx="1194.2" cy="103.8" r="24.7"/>
<circle class="st1" cx="1194.2" cy="237.7" r="24.7"/>
<circle class="st1" cx="1194.2" cy="371.5" r="24.7"/>
<g>
	<path class="st2" d="M1358.2-148.4h-190.9c-4.2,0-7.6,3.4-7.6,7.6v52.1c0,4.2,3.4,7.6,7.6,7.6h80.8l-9.5,29.3l30.2-29.3h89.4
		c4.2,0,7.6-3.4,7.6-7.6v-52.1C1365.8-145,1362.4-148.4,1358.2-148.4z"/>
	<text transform="matrix(1 0 0 1 1200.1941 -103.3557)" class="st4" style="font-family:'JalnanGothicTTF'; font-size:37.8453px;">Home </text>
</g>
<g>
	<polygon class="st3" points="118.7,104.7 185.9,104.7 185.9,88.9 118.7,104.3 	"/>
	<rect x="151.9" y="243.2" class="st3" width="34" height="39"/>
	<polygon class="st3" points="185.9,63.9 185.9,48.1 118.7,48.1 	"/>
	<polygon class="st4" points="151.9,282.2 151.9,243.2 185.9,243.2 185.9,222.8 96.2,222.8 96.2,243.2 134.5,243.2 134.5,282.2 
		96.2,282.2 96.2,302.8 185.9,302.8 185.9,282.2 	"/>
	<path class="st4" d="M167.6,145.9H96.2v20.4h71.4c4.7,0,8.1,0.6,10.3,1.8c3.1,1.6,4.6,4.8,4.6,9.4c0,5.1-2,8.4-5.9,10.2
		c-3.2,1.3-9.1,1.9-17.7,1.9v19c6.4,0,11.2-0.1,14.4-0.4c5.1-0.6,9.3-1.7,12.7-3.4v-55.2C181,147.1,174.9,145.9,167.6,145.9z"/>
	<polygon class="st4" points="118.7,104.7 118.7,104.3 185.9,88.9 185.9,63.9 118.7,48.1 185.9,48.1 185.9,29 96.2,29 96.2,58.6 
		172.5,75.8 172.5,75.9 96.2,93.8 96.2,123.9 185.9,123.9 185.9,104.7 	"/>
</g>
</svg>
