<?xml version="1.0" encoding="utf-8"?>
<!-- Generator: Adobe Illustrator 24.0.2, SVG Export Plug-In . SVG Version: 6.00 Build 0)  -->
<svg version="1.1" id="Layer_1" xmlns="http://www.w3.org/2000/svg" xmlns:xlink="http://www.w3.org/1999/xlink" x="0px" y="0px"
	 viewBox="0 0 1855.5 1130.1" style="enable-background:new 0 0 1855.5 1130.1;" xml:space="preserve">
<style type="text/css">
	.st0{fill:none;stroke:#1D513F;stroke-width:5;stroke-miterlimit:10;}
	.st1{fill:#1D513F;}
</style>
<g>
	<path class="st0" d="M203.8,127.3h153.8c42.2,0,76.1,10.8,101.6,32.4c25.5,21.6,38.2,53.5,38.2,95.8v33.1
		c0,42.2-12.7,74.2-38.2,95.8c-25.5,21.6-59.3,32.4-101.6,32.4h-62.4v119.3h-91.3V127.3z M391.8,323.4c9.8-9.3,14.7-22.7,14.7-40.1
		v-22.8c0-17.4-4.9-30.8-14.7-40.1c-9.8-9.3-22.8-14-38.9-14h-57.8v130.9h57.8C369.1,337.4,382,332.8,391.8,323.4z"/>
	<path class="st0" d="M615,529.4c-23.8-9.3-43.5-24.6-59.2-45.9c-15.7-21.3-23.5-48.7-23.5-82.2V261.9c0-33.5,7.8-61,23.3-82.2
		c15.5-21.3,35.1-36.6,58.7-45.9c23.6-9.3,48.3-14,74.1-14c25.2,0,49.6,4.7,73.4,14c23.8,9.3,43.5,24.6,59.2,45.9
		c15.7,21.3,23.5,48.7,23.5,82.2v139.3c0,33.5-7.8,61-23.5,82.2c-15.7,21.3-35.4,36.6-59.2,45.9c-23.8,9.3-48.2,14-73.4,14
		S638.8,538.7,615,529.4z M735.2,449.9c12.6-10.7,18.9-26.8,18.9-48.2V261.5c0-21.4-6.3-37.5-18.9-48.2s-28.2-16.1-46.8-16.1
		c-18.6,0-34.2,5.4-46.8,16.1s-18.9,26.8-18.9,48.2v140.2c0,21.4,6.3,37.5,18.9,48.2c12.6,10.7,28.2,16.1,46.8,16.1
		C707,466,722.6,460.7,735.2,449.9z"/>
	<path class="st0" d="M891.1,127.3h153.8c45,0,80.4,10,106,30.1c25.6,20,38.4,51.2,38.4,93.4v27c0,51.3-19.6,86.4-58.7,105.3
		l90.9,152.8h-100.6l-75.9-136.1h-62.4v136.1h-91.3V127.3z M1084.9,310.6c9-8.5,13.5-20.6,13.5-36.1v-19.1
		c0-15.5-4.5-27.6-13.5-36.1c-9-8.5-22.4-12.8-40.1-12.8h-62.4v117h62.4C1062.5,323.4,1075.9,319.2,1084.9,310.6z"/>
	<path class="st0" d="M1319.7,204.2h-105.3v-76.9h303.3v76.9H1412v331.8h-92.3V204.2z"/>
	<path class="st1" d="M203.8,594.2h260.9v79.7H295.1v90.9h157.5v79.7H295.1v158.4h-91.3V594.2z"/>
	<path class="st1" d="M584.7,996.3c-23.8-9.3-43.5-24.6-59.2-45.9c-15.7-21.3-23.5-48.7-23.5-82.2V728.9c0-33.5,7.8-61,23.3-82.2
		c15.5-21.3,35.1-36.6,58.7-45.9c23.6-9.3,48.3-14,74.1-14c25.2,0,49.6,4.7,73.4,14c23.8,9.3,43.5,24.6,59.2,45.9
		c15.7,21.3,23.5,48.7,23.5,82.2v139.3c0,33.5-7.8,61-23.5,82.2c-15.7,21.3-35.4,36.6-59.2,45.9c-23.8,9.3-48.2,14-73.4,14
		C632.9,1010.3,608.5,1005.6,584.7,996.3z M704.9,916.9c12.6-10.7,18.9-26.8,18.9-48.2V728.4c0-21.4-6.3-37.5-18.9-48.2
		s-28.2-16.1-46.8-16.1c-18.6,0-34.2,5.4-46.8,16.1s-18.9,26.8-18.9,48.2v140.2c0,21.4,6.3,37.5,18.9,48.2
		c12.6,10.7,28.2,16.1,46.8,16.1C676.7,932.9,692.3,927.6,704.9,916.9z"/>
	<path class="st1" d="M860.8,594.2h91.3v329h155.6v79.7H860.8V594.2z"/>
	<path class="st1" d="M1145,594.2h91.3v408.6H1145V594.2z"/>
	<path class="st1" d="M1365.6,996.3c-23.8-9.3-43.5-24.6-59.2-45.9c-15.7-21.3-23.5-48.7-23.5-82.2V728.9c0-33.5,7.8-61,23.3-82.2
		c15.5-21.3,35.1-36.6,58.7-45.9c23.6-9.3,48.3-14,74.1-14c25.2,0,49.6,4.7,73.4,14c23.8,9.3,43.5,24.6,59.2,45.9
		c15.7,21.3,23.5,48.7,23.5,82.2v139.3c0,33.5-7.8,61-23.5,82.2c-15.7,21.3-35.4,36.6-59.2,45.9c-23.8,9.3-48.2,14-73.4,14
		S1389.4,1005.6,1365.6,996.3z M1485.8,916.9c12.6-10.7,18.9-26.8,18.9-48.2V728.4c0-21.4-6.3-37.5-18.9-48.2
		c-12.6-10.7-28.2-16.1-46.8-16.1s-34.2,5.4-46.8,16.1c-12.6,10.7-18.9,26.8-18.9,48.2v140.2c0,21.4,6.3,37.5,18.9,48.2
		c12.6,10.7,28.2,16.1,46.8,16.1S1473.3,927.6,1485.8,916.9z"/>
	<path class="st1" d="M1618.4,914.3h90.4v89.5h-90.4V914.3z"/>
</g>
</svg>
