<?xml version="1.0" encoding="utf-8"?>
<!-- Generator: Adobe Illustrator 24.0.2, SVG Export Plug-In . SVG Version: 6.00 Build 0)  -->
<svg version="1.1" id="Layer_1" xmlns="http://www.w3.org/2000/svg" xmlns:xlink="http://www.w3.org/1999/xlink" x="0px" y="0px"
	 viewBox="0 0 284.2 317.6" style="enable-background:new 0 0 284.2 317.6;" xml:space="preserve">
<style type="text/css">
	.st0{fill:#1D513F;}
	.st1{fill:#01513E;}
	.st2{fill:#BFBFBF;}
	.st3{fill:#FFFFFF;stroke:#01513E;stroke-miterlimit:10;}
	.st4{fill:none;}
</style>
<ellipse class="st0" cx="186.7" cy="91.4" rx="31.8" ry="52.4"/>
<ellipse class="st0" cx="88.7" cy="195.6" rx="48" ry="79.1"/>
<circle class="st1" cx="1194.2" cy="-30.1" r="24.7"/>
<circle class="st2" cx="1194.2" cy="103.8" r="24.7"/>
<circle class="st2" cx="1194.2" cy="237.7" r="24.7"/>
<circle class="st2" cx="1194.2" cy="371.5" r="24.7"/>
<g>
	<path class="st3" d="M1358.2-148.4h-190.9c-4.2,0-7.6,3.4-7.6,7.6v52.1c0,4.2,3.4,7.6,7.6,7.6h80.8l-9.5,29.3l30.2-29.3h89.4
		c4.2,0,7.6-3.4,7.6-7.6v-52.1C1365.8-145,1362.4-148.4,1358.2-148.4z"/>
	<text transform="matrix(1 0 0 1 1200.1941 -103.3557)" class="st0" style="font-family:'JalnanGothicTTF'; font-size:37.8453px;">Home </text>
</g>
<g>
	<polygon class="st4" points="1291,679.7 1367.6,679.7 1367.6,661.7 1291,679.3 	"/>
	<rect x="1328.8" y="837.5" class="st4" width="38.8" height="44.4"/>
	<polygon class="st4" points="1367.6,633.2 1367.6,615.3 1291,615.3 	"/>
	<polygon class="st0" points="1328.8,881.9 1328.8,837.5 1367.6,837.5 1367.6,814.2 1265.4,814.2 1265.4,837.5 1309,837.5 
		1309,881.9 1265.4,881.9 1265.4,905.3 1367.6,905.3 1367.6,881.9 	"/>
	<path class="st0" d="M1346.7,726.6h-81.3v23.3h81.3c5.4,0,9.3,0.7,11.7,2.1c3.5,1.9,5.3,5.4,5.3,10.7c0,5.8-2.2,9.6-6.7,11.6
		c-3.6,1.5-10.4,2.2-20.2,2.2v21.7c7.3,0,12.8-0.1,16.4-0.4c5.8-0.7,10.6-2,14.4-3.9v-62.8C1362,728,1355.1,726.6,1346.7,726.6z"/>
	<polygon class="st0" points="1291,679.7 1291,679.3 1367.6,661.7 1367.6,633.2 1291,615.3 1367.6,615.3 1367.6,593.4 1265.4,593.4 
		1265.4,627.1 1352.2,646.7 1352.2,646.9 1265.4,667.3 1265.4,701.5 1367.6,701.5 1367.6,679.7 	"/>
</g>
</svg>
