<?xml version="1.0" encoding="utf-8"?>
<!-- Generator: Adobe Illustrator 24.0.2, SVG Export Plug-In . SVG Version: 6.00 Build 0)  -->
<svg version="1.1" id="Layer_1" xmlns="http://www.w3.org/2000/svg" xmlns:xlink="http://www.w3.org/1999/xlink" x="0px" y="0px"
	 viewBox="0 0 1735.1 1049" style="enable-background:new 0 0 1735.1 1049;" xml:space="preserve">
<style type="text/css">
	.st0{fill:#FFFFFF;stroke:#1D513F;stroke-width:5;stroke-miterlimit:10;}
	.st1{fill:#1D513F;}
</style>
<g>
	<path class="st0" d="M122.4,91.7h158.4c43.5,0,78.4,11.1,104.6,33.4c26.2,22.2,39.4,55.1,39.4,98.6v34.1
		c0,43.5-13.1,76.4-39.4,98.6c-26.2,22.2-61.1,33.4-104.6,33.4h-64.3v122.9h-94.1V91.7z M316.1,293.7c10.1-9.6,15.1-23.4,15.1-41.3
		v-23.5c0-17.9-5-31.7-15.1-41.3c-10.1-9.6-23.4-14.4-40.1-14.4h-59.5v134.9H276C292.6,308.1,306,303.3,316.1,293.7z"/>
	<path class="st0" d="M546,505.9c-24.5-9.6-44.8-25.4-61-47.3c-16.2-21.9-24.2-50.2-24.2-84.7V230.4c0-34.6,8-62.8,24-84.7
		c16-21.9,36.2-37.7,60.5-47.3C569.6,88.8,595,84,621.6,84c25.9,0,51.1,4.8,75.6,14.4c24.5,9.6,44.8,25.4,61,47.3
		c16.2,21.9,24.2,50.2,24.2,84.7v143.5c0,34.6-8.1,62.8-24.2,84.7c-16.2,21.9-36.5,37.7-61,47.3c-24.5,9.6-49.7,14.4-75.6,14.4
		S570.5,515.5,546,505.9z M669.8,424.1c13-11,19.4-27.6,19.4-49.7V229.9c0-22.1-6.5-38.6-19.4-49.7s-29-16.6-48.2-16.6
		s-35.3,5.5-48.2,16.6s-19.4,27.6-19.4,49.7v144.5c0,22.1,6.5,38.6,19.4,49.7s29,16.6,48.2,16.6S656.9,435.1,669.8,424.1z"/>
	<path class="st0" d="M830.4,91.7h158.4c46.4,0,82.8,10.3,109.2,31c26.4,20.6,39.6,52.7,39.6,96.2v27.8c0,52.8-20.2,89-60.5,108.5
		l93.6,157.4H1067l-78.2-140.2h-64.3v140.2h-94.1V91.7z M1030.1,280.5c9.3-8.8,13.9-21.2,13.9-37.2v-19.7c0-16-4.6-28.4-13.9-37.2
		c-9.3-8.8-23-13.2-41.3-13.2h-64.3v120.5h64.3C1007,293.7,1020.8,289.3,1030.1,280.5z"/>
	<path class="st0" d="M1272,170.9h-108.5V91.7H1476v79.2h-109v341.8h-95V170.9z"/>
	<path class="st1" d="M122.4,572.7h268.8v82.1H216.5v93.6h162.2v82.1H216.5v163.2h-94.1V572.7z"/>
	<path class="st1" d="M514.8,986.9c-24.5-9.6-44.8-25.4-61-47.3c-16.2-21.9-24.2-50.2-24.2-84.7V711.4c0-34.6,8-62.8,24-84.7
		c16-21.9,36.2-37.7,60.5-47.3c24.3-9.6,49.8-14.4,76.3-14.4c25.9,0,51.1,4.8,75.6,14.4c24.5,9.6,44.8,25.4,61,47.3
		c16.2,21.9,24.2,50.2,24.2,84.7v143.5c0,34.6-8.1,62.8-24.2,84.7c-16.2,21.9-36.5,37.7-61,47.3c-24.5,9.6-49.7,14.4-75.6,14.4
		S539.3,996.5,514.8,986.9z M638.6,905.1c13-11,19.4-27.6,19.4-49.7V710.9c0-22.1-6.5-38.6-19.4-49.7s-29-16.6-48.2-16.6
		s-35.3,5.5-48.2,16.6s-19.4,27.6-19.4,49.7v144.5c0,22.1,6.5,38.6,19.4,49.7s29,16.6,48.2,16.6S625.7,916.1,638.6,905.1z"/>
	<path class="st1" d="M799.2,572.7h94.1v338.9h160.3v82.1H799.2V572.7z"/>
	<path class="st1" d="M1092,572.7h94.1v421H1092V572.7z"/>
	<path class="st1" d="M1319.3,986.9c-24.5-9.6-44.8-25.4-61-47.3c-16.2-21.9-24.2-50.2-24.2-84.7V711.4c0-34.6,8-62.8,24-84.7
		c16-21.9,36.2-37.7,60.5-47.3c24.3-9.6,49.8-14.4,76.3-14.4c25.9,0,51.1,4.8,75.6,14.4c24.5,9.6,44.8,25.4,61,47.3
		c16.2,21.9,24.2,50.2,24.2,84.7v143.5c0,34.6-8.1,62.8-24.2,84.7c-16.2,21.9-36.5,37.7-61,47.3c-24.5,9.6-49.7,14.4-75.6,14.4
		S1343.7,996.5,1319.3,986.9z M1443.1,905.1c13-11,19.4-27.6,19.4-49.7V710.9c0-22.1-6.5-38.6-19.4-49.7s-29-16.6-48.2-16.6
		s-35.3,5.5-48.2,16.6s-19.4,27.6-19.4,49.7v144.5c0,22.1,6.5,38.6,19.4,49.7s29,16.6,48.2,16.6S1430.1,916.1,1443.1,905.1z"/>
	<path class="st1" d="M1579.7,902.4h93.1v92.2h-93.1V902.4z"/>
</g>
</svg>
